<svg xmlns="http://www.w3.org/2000/svg" xmlns:xlink="http://www.w3.org/1999/xlink" width="640" zoomAndPan="magnify" viewBox="0 0 480 269.999989" height="360" preserveAspectRatio="xMidYMid meet" version="1.0"><defs><clipPath id="c4fb049658"><path d="M 193.027344 88.027344 L 286.777344 88.027344 L 286.777344 181.777344 L 193.027344 181.777344 Z M 193.027344 88.027344 " clip-rule="nonzero"/></clipPath></defs><rect x="-48" width="576" fill="#ffffff" y="-26.999999" height="323.999987" fill-opacity="1"/><rect x="-48" width="576" fill="#ffffff" y="-26.999999" height="323.999987" fill-opacity="1"/><rect x="-48" width="576" fill="#e5e6e6" y="-26.999999" height="323.999987" fill-opacity="1"/><g clip-path="url(#c4fb049658)"><path fill="#545454" d="M 202.660156 151.507812 L 228.425781 124.613281 C 229.148438 123.871094 230.339844 123.851562 231.082031 124.550781 L 248.214844 142.429688 L 257.761719 133.542969 C 258.503906 132.820312 259.695312 132.863281 260.398438 133.628906 L 277.253906 151.613281 C 277.976562 152.378906 277.9375 153.546875 277.191406 154.269531 C 276.789062 154.632812 276.296875 154.800781 275.808594 154.757812 L 255.65625 154.757812 L 255.65625 154.78125 L 203.914062 154.78125 C 202.871094 154.78125 202.023438 153.929688 202.023438 152.890625 C 202.023438 152.335938 202.277344 151.847656 202.660156 151.507812 Z M 196.792969 164.515625 L 283.015625 164.515625 L 283.015625 91.792969 L 196.792969 91.792969 Z M 283.015625 168.28125 L 196.792969 168.28125 L 196.792969 178.015625 L 283.015625 178.015625 Z M 194.898438 88.027344 L 284.910156 88.027344 C 285.929688 88.027344 286.777344 88.878906 286.777344 89.898438 L 286.777344 179.910156 C 286.777344 180.929688 285.929688 181.777344 284.910156 181.777344 L 194.898438 181.777344 C 193.878906 181.777344 193.027344 180.929688 193.027344 179.910156 L 193.027344 89.898438 C 193.027344 88.878906 193.878906 88.027344 194.898438 88.027344 Z M 248.960938 110.605469 C 253.574219 110.691406 256.527344 113.285156 257.824219 116.578125 C 258.3125 117.8125 258.546875 119.171875 258.527344 120.511719 C 258.527344 121.851562 258.25 123.191406 257.738281 124.421875 C 256.402344 127.613281 253.445312 130.058594 248.898438 130.015625 C 244.15625 129.972656 241.117188 127.378906 239.777344 124.082031 C 239.289062 122.828125 239.03125 121.488281 239.054688 120.128906 C 239.054688 118.769531 239.332031 117.410156 239.863281 116.175781 C 241.242188 112.988281 244.285156 110.542969 248.960938 110.605469 Z M 254.339844 117.941406 C 253.550781 115.964844 251.746094 114.390625 248.898438 114.347656 C 245.984375 114.304688 244.113281 115.75 243.304688 117.664062 C 242.964844 118.449219 242.796875 119.300781 242.773438 120.152344 C 242.773438 121.023438 242.921875 121.894531 243.261719 122.703125 C 244.050781 124.679688 245.941406 126.253906 248.917969 126.292969 C 251.703125 126.316406 253.507812 124.871094 254.296875 122.976562 C 254.613281 122.191406 254.785156 121.339844 254.785156 120.46875 C 254.804688 119.621094 254.65625 118.746094 254.339844 117.941406 Z M 258.929688 137.539062 L 250.808594 145.152344 L 256.445312 151.039062 L 271.578125 151.039062 Z M 229.785156 128.613281 L 208.292969 151.019531 L 251.257812 151.019531 Z M 229.785156 128.613281 " fill-opacity="1" fill-rule="nonzero"/></g></svg>